<mxfile host="app.diagrams.net" modified="2022-03-04T05:13:43.095Z" agent="5.0 (Windows NT 10.0; Win64; x64) AppleWebKit/537.36 (KHTML, like Gecko) Chrome/98.0.4758.102 Safari/537.36" etag="eRkVJv12c1Eq_aiFSzTC" version="16.6.5" type="github">
  <diagram id="7Q6d0gSe2RfeiBhIu6H1" name="Page-1">
    <mxGraphModel dx="2272" dy="762" grid="1" gridSize="10" guides="1" tooltips="1" connect="1" arrows="1" fold="1" page="1" pageScale="1" pageWidth="850" pageHeight="1100" math="0" shadow="0">
      <root>
        <mxCell id="0" />
        <mxCell id="1" parent="0" />
        <mxCell id="qzB6tSZT5ePcG6Z2w_7R-3" value="AWS Cloud" style="points=[[0,0],[0.25,0],[0.5,0],[0.75,0],[1,0],[1,0.25],[1,0.5],[1,0.75],[1,1],[0.75,1],[0.5,1],[0.25,1],[0,1],[0,0.75],[0,0.5],[0,0.25]];outlineConnect=0;gradientColor=none;html=1;whiteSpace=wrap;fontSize=12;fontStyle=0;container=1;pointerEvents=0;collapsible=0;recursiveResize=0;shape=mxgraph.aws4.group;grIcon=mxgraph.aws4.group_aws_cloud_alt;strokeColor=#232F3E;fillColor=none;verticalAlign=top;align=left;spacingLeft=30;fontColor=#232F3E;dashed=0;" parent="1" vertex="1">
          <mxGeometry x="50" y="40" width="910" height="450" as="geometry" />
        </mxCell>
        <mxCell id="KunmOENqvzwIEbT-jIGr-20" value="" style="sketch=0;points=[[0,0,0],[0.25,0,0],[0.5,0,0],[0.75,0,0],[1,0,0],[0,1,0],[0.25,1,0],[0.5,1,0],[0.75,1,0],[1,1,0],[0,0.25,0],[0,0.5,0],[0,0.75,0],[1,0.25,0],[1,0.5,0],[1,0.75,0]];points=[[0,0,0],[0.25,0,0],[0.5,0,0],[0.75,0,0],[1,0,0],[0,1,0],[0.25,1,0],[0.5,1,0],[0.75,1,0],[1,1,0],[0,0.25,0],[0,0.5,0],[0,0.75,0],[1,0.25,0],[1,0.5,0],[1,0.75,0]];outlineConnect=0;fontColor=#232F3E;gradientColor=#F34482;gradientDirection=north;fillColor=#BC1356;strokeColor=#ffffff;dashed=0;verticalLabelPosition=bottom;verticalAlign=top;align=center;html=1;fontSize=12;fontStyle=0;aspect=fixed;shape=mxgraph.aws4.resourceIcon;resIcon=mxgraph.aws4.cloudwatch_2;" parent="qzB6tSZT5ePcG6Z2w_7R-3" vertex="1">
          <mxGeometry x="840" y="30" width="50" height="50" as="geometry" />
        </mxCell>
        <mxCell id="KunmOENqvzwIEbT-jIGr-21" value="Cloudwatch" style="text;html=1;resizable=0;autosize=1;align=center;verticalAlign=middle;points=[];fillColor=none;strokeColor=none;rounded=0;" parent="qzB6tSZT5ePcG6Z2w_7R-3" vertex="1">
          <mxGeometry x="825" y="80" width="80" height="20" as="geometry" />
        </mxCell>
        <mxCell id="8UPiZ9vFNv64V0zAvvHJ-7" value="Cloud IAM" style="sketch=0;html=1;fillColor=#5184F3;strokeColor=none;verticalAlign=top;labelPosition=center;verticalLabelPosition=bottom;align=center;spacingTop=-6;fontSize=11;fontStyle=1;fontColor=#999999;shape=mxgraph.gcp2.hexIcon;prIcon=cloud_iam" vertex="1" parent="qzB6tSZT5ePcG6Z2w_7R-3">
          <mxGeometry x="832" y="110" width="66" height="58.5" as="geometry" />
        </mxCell>
        <mxCell id="qzB6tSZT5ePcG6Z2w_7R-4" value="Region" style="points=[[0,0],[0.25,0],[0.5,0],[0.75,0],[1,0],[1,0.25],[1,0.5],[1,0.75],[1,1],[0.75,1],[0.5,1],[0.25,1],[0,1],[0,0.75],[0,0.5],[0,0.25]];outlineConnect=0;gradientColor=none;html=1;whiteSpace=wrap;fontSize=12;fontStyle=0;container=1;pointerEvents=0;collapsible=0;recursiveResize=0;shape=mxgraph.aws4.group;grIcon=mxgraph.aws4.group_region;strokeColor=#147EBA;fillColor=none;verticalAlign=top;align=left;spacingLeft=30;fontColor=#147EBA;dashed=1;" parent="1" vertex="1">
          <mxGeometry x="80" y="70" width="800" height="380" as="geometry" />
        </mxCell>
        <mxCell id="iw8xefliiGtKPW58excf-16" style="edgeStyle=orthogonalEdgeStyle;rounded=0;orthogonalLoop=1;jettySize=auto;html=1;exitX=1;exitY=0.5;exitDx=0;exitDy=0;exitPerimeter=0;" parent="qzB6tSZT5ePcG6Z2w_7R-4" source="iw8xefliiGtKPW58excf-3" edge="1">
          <mxGeometry relative="1" as="geometry">
            <mxPoint x="112.50398347595183" y="124.60000000000002" as="targetPoint" />
          </mxGeometry>
        </mxCell>
        <mxCell id="iw8xefliiGtKPW58excf-3" value="" style="sketch=0;points=[[0,0,0],[0.25,0,0],[0.5,0,0],[0.75,0,0],[1,0,0],[0,1,0],[0.25,1,0],[0.5,1,0],[0.75,1,0],[1,1,0],[0,0.25,0],[0,0.5,0],[0,0.75,0],[1,0.25,0],[1,0.5,0],[1,0.75,0]];outlineConnect=0;fontColor=#232F3E;gradientColor=#945DF2;gradientDirection=north;fillColor=#5A30B5;strokeColor=#ffffff;dashed=0;verticalLabelPosition=bottom;verticalAlign=top;align=center;html=1;fontSize=12;fontStyle=0;aspect=fixed;shape=mxgraph.aws4.resourceIcon;resIcon=mxgraph.aws4.kinesis_data_firehose;" parent="qzB6tSZT5ePcG6Z2w_7R-4" vertex="1">
          <mxGeometry x="20" y="100" width="48" height="48" as="geometry" />
        </mxCell>
        <mxCell id="iw8xefliiGtKPW58excf-17" value="" style="edgeStyle=orthogonalEdgeStyle;rounded=0;orthogonalLoop=1;jettySize=auto;html=1;" parent="qzB6tSZT5ePcG6Z2w_7R-4" target="iw8xefliiGtKPW58excf-5" edge="1">
          <mxGeometry relative="1" as="geometry">
            <mxPoint x="157.49601652404863" y="124.60000000000002" as="sourcePoint" />
          </mxGeometry>
        </mxCell>
        <mxCell id="iw8xefliiGtKPW58excf-18" style="edgeStyle=orthogonalEdgeStyle;rounded=0;orthogonalLoop=1;jettySize=auto;html=1;exitX=1;exitY=0.5;exitDx=0;exitDy=0;exitPerimeter=0;" parent="qzB6tSZT5ePcG6Z2w_7R-4" source="iw8xefliiGtKPW58excf-5" edge="1">
          <mxGeometry relative="1" as="geometry">
            <mxPoint x="290.0039834759518" y="125.20000000000005" as="targetPoint" />
          </mxGeometry>
        </mxCell>
        <mxCell id="iw8xefliiGtKPW58excf-5" value="" style="sketch=0;points=[[0,0,0],[0.25,0,0],[0.5,0,0],[0.75,0,0],[1,0,0],[0,1,0],[0.25,1,0],[0.5,1,0],[0.75,1,0],[1,1,0],[0,0.25,0],[0,0.5,0],[0,0.75,0],[1,0.25,0],[1,0.5,0],[1,0.75,0]];outlineConnect=0;fontColor=#232F3E;gradientColor=#945DF2;gradientDirection=north;fillColor=#5A30B5;strokeColor=#ffffff;dashed=0;verticalLabelPosition=bottom;verticalAlign=top;align=center;html=1;fontSize=12;fontStyle=0;aspect=fixed;shape=mxgraph.aws4.resourceIcon;resIcon=mxgraph.aws4.glue;" parent="qzB6tSZT5ePcG6Z2w_7R-4" vertex="1">
          <mxGeometry x="200" y="101.2" width="48" height="48" as="geometry" />
        </mxCell>
        <mxCell id="iw8xefliiGtKPW58excf-38" value="" style="edgeStyle=orthogonalEdgeStyle;rounded=0;orthogonalLoop=1;jettySize=auto;html=1;startArrow=none;startFill=0;endArrow=classic;endFill=1;" parent="qzB6tSZT5ePcG6Z2w_7R-4" source="iw8xefliiGtKPW58excf-13" target="iw8xefliiGtKPW58excf-14" edge="1">
          <mxGeometry relative="1" as="geometry" />
        </mxCell>
        <mxCell id="iw8xefliiGtKPW58excf-13" value="" style="sketch=0;points=[[0,0,0],[0.25,0,0],[0.5,0,0],[0.75,0,0],[1,0,0],[0,1,0],[0.25,1,0],[0.5,1,0],[0.75,1,0],[1,1,0],[0,0.25,0],[0,0.5,0],[0,0.75,0],[1,0.25,0],[1,0.5,0],[1,0.75,0]];outlineConnect=0;fontColor=#232F3E;gradientColor=#945DF2;gradientDirection=north;fillColor=#5A30B5;strokeColor=#ffffff;dashed=0;verticalLabelPosition=bottom;verticalAlign=top;align=center;html=1;fontSize=12;fontStyle=0;aspect=fixed;shape=mxgraph.aws4.resourceIcon;resIcon=mxgraph.aws4.kinesis_data_streams;" parent="qzB6tSZT5ePcG6Z2w_7R-4" vertex="1">
          <mxGeometry x="20" y="250" width="48" height="48" as="geometry" />
        </mxCell>
        <mxCell id="iw8xefliiGtKPW58excf-39" value="" style="edgeStyle=orthogonalEdgeStyle;rounded=0;orthogonalLoop=1;jettySize=auto;html=1;startArrow=none;startFill=0;" parent="qzB6tSZT5ePcG6Z2w_7R-4" source="iw8xefliiGtKPW58excf-14" target="iw8xefliiGtKPW58excf-15" edge="1">
          <mxGeometry relative="1" as="geometry" />
        </mxCell>
        <mxCell id="iw8xefliiGtKPW58excf-14" value="" style="sketch=0;points=[[0,0,0],[0.25,0,0],[0.5,0,0],[0.75,0,0],[1,0,0],[0,1,0],[0.25,1,0],[0.5,1,0],[0.75,1,0],[1,1,0],[0,0.25,0],[0,0.5,0],[0,0.75,0],[1,0.25,0],[1,0.5,0],[1,0.75,0]];outlineConnect=0;fontColor=#232F3E;gradientColor=#945DF2;gradientDirection=north;fillColor=#5A30B5;strokeColor=#ffffff;dashed=0;verticalLabelPosition=bottom;verticalAlign=top;align=center;html=1;fontSize=12;fontStyle=0;aspect=fixed;shape=mxgraph.aws4.resourceIcon;resIcon=mxgraph.aws4.kinesis_data_analytics;" parent="qzB6tSZT5ePcG6Z2w_7R-4" vertex="1">
          <mxGeometry x="107.5" y="249" width="50" height="50" as="geometry" />
        </mxCell>
        <mxCell id="KunmOENqvzwIEbT-jIGr-3" style="edgeStyle=orthogonalEdgeStyle;rounded=0;orthogonalLoop=1;jettySize=auto;html=1;" parent="qzB6tSZT5ePcG6Z2w_7R-4" source="iw8xefliiGtKPW58excf-15" target="KunmOENqvzwIEbT-jIGr-2" edge="1">
          <mxGeometry relative="1" as="geometry" />
        </mxCell>
        <mxCell id="iw8xefliiGtKPW58excf-15" value="" style="sketch=0;points=[[0,0,0],[0.25,0,0],[0.5,0,0],[0.75,0,0],[1,0,0],[0,1,0],[0.25,1,0],[0.5,1,0],[0.75,1,0],[1,1,0],[0,0.25,0],[0,0.5,0],[0,0.75,0],[1,0.25,0],[1,0.5,0],[1,0.75,0]];outlineConnect=0;fontColor=#232F3E;gradientColor=#945DF2;gradientDirection=north;fillColor=#5A30B5;strokeColor=#ffffff;dashed=0;verticalLabelPosition=bottom;verticalAlign=top;align=center;html=1;fontSize=12;fontStyle=0;aspect=fixed;shape=mxgraph.aws4.resourceIcon;resIcon=mxgraph.aws4.kinesis_data_firehose;" parent="qzB6tSZT5ePcG6Z2w_7R-4" vertex="1">
          <mxGeometry x="200" y="250" width="48" height="48" as="geometry" />
        </mxCell>
        <mxCell id="iw8xefliiGtKPW58excf-45" value="Kinesis&lt;br&gt;Firehose" style="text;html=1;resizable=0;autosize=1;align=center;verticalAlign=middle;points=[];fillColor=none;strokeColor=none;rounded=0;" parent="qzB6tSZT5ePcG6Z2w_7R-4" vertex="1">
          <mxGeometry x="10" y="155" width="60" height="30" as="geometry" />
        </mxCell>
        <mxCell id="iw8xefliiGtKPW58excf-46" value="S3 (JSON)" style="text;html=1;resizable=0;autosize=1;align=center;verticalAlign=middle;points=[];fillColor=none;strokeColor=none;rounded=0;" parent="qzB6tSZT5ePcG6Z2w_7R-4" vertex="1">
          <mxGeometry x="97.5" y="155" width="70" height="20" as="geometry" />
        </mxCell>
        <mxCell id="iw8xefliiGtKPW58excf-50" value="S3 (Parquet)" style="text;html=1;resizable=0;autosize=1;align=center;verticalAlign=middle;points=[];fillColor=none;strokeColor=none;rounded=0;" parent="qzB6tSZT5ePcG6Z2w_7R-4" vertex="1">
          <mxGeometry x="272.5" y="155" width="80" height="20" as="geometry" />
        </mxCell>
        <mxCell id="iw8xefliiGtKPW58excf-51" value="AWS Glue" style="text;html=1;resizable=0;autosize=1;align=center;verticalAlign=middle;points=[];fillColor=none;strokeColor=none;rounded=0;" parent="qzB6tSZT5ePcG6Z2w_7R-4" vertex="1">
          <mxGeometry x="189" y="155" width="70" height="20" as="geometry" />
        </mxCell>
        <mxCell id="iw8xefliiGtKPW58excf-53" value="Kinesis&lt;br&gt;Data Stream" style="text;html=1;resizable=0;autosize=1;align=center;verticalAlign=middle;points=[];fillColor=none;strokeColor=none;rounded=0;" parent="qzB6tSZT5ePcG6Z2w_7R-4" vertex="1">
          <mxGeometry x="4" y="300" width="80" height="30" as="geometry" />
        </mxCell>
        <mxCell id="iw8xefliiGtKPW58excf-54" value="Kinesis&lt;br&gt;Firehose" style="text;html=1;resizable=0;autosize=1;align=center;verticalAlign=middle;points=[];fillColor=none;strokeColor=none;rounded=0;" parent="qzB6tSZT5ePcG6Z2w_7R-4" vertex="1">
          <mxGeometry x="189" y="300" width="60" height="30" as="geometry" />
        </mxCell>
        <mxCell id="iw8xefliiGtKPW58excf-55" value="Kinesis&lt;br&gt;Data Analytics" style="text;html=1;resizable=0;autosize=1;align=center;verticalAlign=middle;points=[];fillColor=none;strokeColor=none;rounded=0;" parent="qzB6tSZT5ePcG6Z2w_7R-4" vertex="1">
          <mxGeometry x="90" y="299" width="90" height="30" as="geometry" />
        </mxCell>
        <mxCell id="KunmOENqvzwIEbT-jIGr-2" value="" style="outlineConnect=0;dashed=0;verticalLabelPosition=bottom;verticalAlign=top;align=center;html=1;shape=mxgraph.aws3.elasticsearch_service;fillColor=#F58534;gradientColor=none;aspect=fixed;" parent="qzB6tSZT5ePcG6Z2w_7R-4" vertex="1">
          <mxGeometry x="304.5" y="239" width="55.5" height="70" as="geometry" />
        </mxCell>
        <mxCell id="KunmOENqvzwIEbT-jIGr-4" value="Opensearch" style="text;html=1;strokeColor=none;fillColor=none;align=center;verticalAlign=middle;whiteSpace=wrap;rounded=0;" parent="qzB6tSZT5ePcG6Z2w_7R-4" vertex="1">
          <mxGeometry x="300" y="309" width="60" height="30" as="geometry" />
        </mxCell>
        <mxCell id="KunmOENqvzwIEbT-jIGr-10" style="edgeStyle=orthogonalEdgeStyle;rounded=0;orthogonalLoop=1;jettySize=auto;html=1;entryX=0;entryY=0.5;entryDx=0;entryDy=0;entryPerimeter=0;" parent="qzB6tSZT5ePcG6Z2w_7R-4" source="KunmOENqvzwIEbT-jIGr-6" target="KunmOENqvzwIEbT-jIGr-9" edge="1">
          <mxGeometry relative="1" as="geometry" />
        </mxCell>
        <mxCell id="KunmOENqvzwIEbT-jIGr-6" value="" style="outlineConnect=0;dashed=0;verticalLabelPosition=bottom;verticalAlign=top;align=center;html=1;shape=mxgraph.aws3.lambda_function;fillColor=#F58534;gradientColor=none;aspect=fixed;" parent="qzB6tSZT5ePcG6Z2w_7R-4" vertex="1">
          <mxGeometry x="420" y="99.03" width="49" height="51.13" as="geometry" />
        </mxCell>
        <mxCell id="KunmOENqvzwIEbT-jIGr-7" value="" style="endArrow=classic;html=1;rounded=0;entryX=0;entryY=0.5;entryDx=0;entryDy=0;entryPerimeter=0;" parent="qzB6tSZT5ePcG6Z2w_7R-4" target="KunmOENqvzwIEbT-jIGr-6" edge="1">
          <mxGeometry width="50" height="50" relative="1" as="geometry">
            <mxPoint x="334.9960165240486" y="125.07339451165535" as="sourcePoint" />
            <mxPoint x="450" y="230" as="targetPoint" />
          </mxGeometry>
        </mxCell>
        <mxCell id="KunmOENqvzwIEbT-jIGr-8" value="Lambda" style="text;html=1;resizable=0;autosize=1;align=center;verticalAlign=middle;points=[];fillColor=none;strokeColor=none;rounded=0;" parent="qzB6tSZT5ePcG6Z2w_7R-4" vertex="1">
          <mxGeometry x="414.5" y="155" width="60" height="20" as="geometry" />
        </mxCell>
        <mxCell id="KunmOENqvzwIEbT-jIGr-16" style="edgeStyle=orthogonalEdgeStyle;rounded=0;orthogonalLoop=1;jettySize=auto;html=1;entryX=0;entryY=0.5;entryDx=0;entryDy=0;entryPerimeter=0;" parent="qzB6tSZT5ePcG6Z2w_7R-4" source="KunmOENqvzwIEbT-jIGr-9" target="KunmOENqvzwIEbT-jIGr-12" edge="1">
          <mxGeometry relative="1" as="geometry" />
        </mxCell>
        <mxCell id="KunmOENqvzwIEbT-jIGr-9" value="" style="sketch=0;points=[[0,0,0],[0.25,0,0],[0.5,0,0],[0.75,0,0],[1,0,0],[0,1,0],[0.25,1,0],[0.5,1,0],[0.75,1,0],[1,1,0],[0,0.25,0],[0,0.5,0],[0,0.75,0],[1,0.25,0],[1,0.5,0],[1,0.75,0]];outlineConnect=0;fontColor=#232F3E;gradientColor=#945DF2;gradientDirection=north;fillColor=#5A30B5;strokeColor=#ffffff;dashed=0;verticalLabelPosition=bottom;verticalAlign=top;align=center;html=1;fontSize=12;fontStyle=0;aspect=fixed;shape=mxgraph.aws4.resourceIcon;resIcon=mxgraph.aws4.redshift;" parent="qzB6tSZT5ePcG6Z2w_7R-4" vertex="1">
          <mxGeometry x="530" y="100" width="48" height="48" as="geometry" />
        </mxCell>
        <mxCell id="KunmOENqvzwIEbT-jIGr-18" style="edgeStyle=orthogonalEdgeStyle;rounded=0;orthogonalLoop=1;jettySize=auto;html=1;entryX=0.5;entryY=0;entryDx=0;entryDy=0;entryPerimeter=0;" parent="qzB6tSZT5ePcG6Z2w_7R-4" source="KunmOENqvzwIEbT-jIGr-11" target="KunmOENqvzwIEbT-jIGr-17" edge="1">
          <mxGeometry relative="1" as="geometry" />
        </mxCell>
        <mxCell id="KunmOENqvzwIEbT-jIGr-11" value="Redshift" style="text;html=1;resizable=0;autosize=1;align=center;verticalAlign=middle;points=[];fillColor=none;strokeColor=none;rounded=0;" parent="qzB6tSZT5ePcG6Z2w_7R-4" vertex="1">
          <mxGeometry x="524" y="155" width="60" height="20" as="geometry" />
        </mxCell>
        <mxCell id="KunmOENqvzwIEbT-jIGr-12" value="" style="sketch=0;points=[[0,0,0],[0.25,0,0],[0.5,0,0],[0.75,0,0],[1,0,0],[0,1,0],[0.25,1,0],[0.5,1,0],[0.75,1,0],[1,1,0],[0,0.25,0],[0,0.5,0],[0,0.75,0],[1,0.25,0],[1,0.5,0],[1,0.75,0]];outlineConnect=0;fontColor=#232F3E;gradientColor=#60A337;gradientDirection=north;fillColor=#277116;strokeColor=#ffffff;dashed=0;verticalLabelPosition=bottom;verticalAlign=top;align=center;html=1;fontSize=12;fontStyle=0;aspect=fixed;shape=mxgraph.aws4.resourceIcon;resIcon=mxgraph.aws4.glacier;" parent="qzB6tSZT5ePcG6Z2w_7R-4" vertex="1">
          <mxGeometry x="633.75" y="10" width="52.5" height="52.5" as="geometry" />
        </mxCell>
        <mxCell id="KunmOENqvzwIEbT-jIGr-13" value="S3 Glacier" style="text;html=1;resizable=0;autosize=1;align=center;verticalAlign=middle;points=[];fillColor=none;strokeColor=none;rounded=0;" parent="qzB6tSZT5ePcG6Z2w_7R-4" vertex="1">
          <mxGeometry x="625" y="62.5" width="70" height="20" as="geometry" />
        </mxCell>
        <mxCell id="KunmOENqvzwIEbT-jIGr-14" value="" style="sketch=0;points=[[0,0,0],[0.25,0,0],[0.5,0,0],[0.75,0,0],[1,0,0],[0,1,0],[0.25,1,0],[0.5,1,0],[0.75,1,0],[1,1,0],[0,0.25,0],[0,0.5,0],[0,0.75,0],[1,0.25,0],[1,0.5,0],[1,0.75,0]];outlineConnect=0;fontColor=#232F3E;gradientColor=#60A337;gradientDirection=north;fillColor=#277116;strokeColor=#ffffff;dashed=0;verticalLabelPosition=bottom;verticalAlign=top;align=center;html=1;fontSize=12;fontStyle=0;aspect=fixed;shape=mxgraph.aws4.resourceIcon;resIcon=mxgraph.aws4.s3;" parent="qzB6tSZT5ePcG6Z2w_7R-4" vertex="1">
          <mxGeometry x="288.5" y="100.6" width="48" height="48" as="geometry" />
        </mxCell>
        <mxCell id="KunmOENqvzwIEbT-jIGr-15" value="" style="sketch=0;points=[[0,0,0],[0.25,0,0],[0.5,0,0],[0.75,0,0],[1,0,0],[0,1,0],[0.25,1,0],[0.5,1,0],[0.75,1,0],[1,1,0],[0,0.25,0],[0,0.5,0],[0,0.75,0],[1,0.25,0],[1,0.5,0],[1,0.75,0]];outlineConnect=0;fontColor=#232F3E;gradientColor=#60A337;gradientDirection=north;fillColor=#277116;strokeColor=#ffffff;dashed=0;verticalLabelPosition=bottom;verticalAlign=top;align=center;html=1;fontSize=12;fontStyle=0;aspect=fixed;shape=mxgraph.aws4.resourceIcon;resIcon=mxgraph.aws4.s3;" parent="qzB6tSZT5ePcG6Z2w_7R-4" vertex="1">
          <mxGeometry x="109.5" y="104.5" width="48" height="48" as="geometry" />
        </mxCell>
        <mxCell id="KunmOENqvzwIEbT-jIGr-17" value="" style="sketch=0;points=[[0,0,0],[0.25,0,0],[0.5,0,0],[0.75,0,0],[1,0,0],[0,1,0],[0.25,1,0],[0.5,1,0],[0.75,1,0],[1,1,0],[0,0.25,0],[0,0.5,0],[0,0.75,0],[1,0.25,0],[1,0.5,0],[1,0.75,0]];outlineConnect=0;fontColor=#232F3E;gradientColor=#945DF2;gradientDirection=north;fillColor=#5A30B5;strokeColor=#ffffff;dashed=0;verticalLabelPosition=bottom;verticalAlign=top;align=center;html=1;fontSize=12;fontStyle=0;aspect=fixed;shape=mxgraph.aws4.resourceIcon;resIcon=mxgraph.aws4.quicksight;" parent="qzB6tSZT5ePcG6Z2w_7R-4" vertex="1">
          <mxGeometry x="527.5" y="250" width="53" height="53" as="geometry" />
        </mxCell>
        <mxCell id="KunmOENqvzwIEbT-jIGr-19" value="Quicksight" style="text;html=1;resizable=0;autosize=1;align=center;verticalAlign=middle;points=[];fillColor=none;strokeColor=none;rounded=0;" parent="qzB6tSZT5ePcG6Z2w_7R-4" vertex="1">
          <mxGeometry x="519" y="322" width="70" height="20" as="geometry" />
        </mxCell>
        <mxCell id="KunmOENqvzwIEbT-jIGr-47" value="Batch analytics" style="fillColor=none;strokeColor=#5A6C86;dashed=1;verticalAlign=top;fontStyle=0;fontColor=#5A6C86;glass=0;" parent="qzB6tSZT5ePcG6Z2w_7R-4" vertex="1">
          <mxGeometry x="10" y="70" width="376" height="130" as="geometry" />
        </mxCell>
        <mxCell id="-VK0RoGRRZJG0Q7qWrFC-2" value="" style="sketch=0;points=[[0,0,0],[0.25,0,0],[0.5,0,0],[0.75,0,0],[1,0,0],[0,1,0],[0.25,1,0],[0.5,1,0],[0.75,1,0],[1,1,0],[0,0.25,0],[0,0.5,0],[0,0.75,0],[1,0.25,0],[1,0.5,0],[1,0.75,0]];outlineConnect=0;fontColor=#232F3E;gradientColor=#4AB29A;gradientDirection=north;fillColor=#116D5B;strokeColor=#ffffff;dashed=0;verticalLabelPosition=bottom;verticalAlign=top;align=center;html=1;fontSize=12;fontStyle=0;aspect=fixed;shape=mxgraph.aws4.resourceIcon;resIcon=mxgraph.aws4.sagemaker;" parent="qzB6tSZT5ePcG6Z2w_7R-4" vertex="1">
          <mxGeometry x="740" y="102.16" width="48" height="48" as="geometry" />
        </mxCell>
        <mxCell id="-VK0RoGRRZJG0Q7qWrFC-1" value="" style="endArrow=classic;startArrow=classic;html=1;rounded=0;exitX=0;exitY=0.75;exitDx=0;exitDy=0;exitPerimeter=0;" parent="qzB6tSZT5ePcG6Z2w_7R-4" source="-VK0RoGRRZJG0Q7qWrFC-2" edge="1">
          <mxGeometry width="50" height="50" relative="1" as="geometry">
            <mxPoint x="470" y="150" as="sourcePoint" />
            <mxPoint x="580" y="140" as="targetPoint" />
          </mxGeometry>
        </mxCell>
        <mxCell id="-VK0RoGRRZJG0Q7qWrFC-3" value="Sagemaker" style="text;html=1;resizable=0;autosize=1;align=center;verticalAlign=middle;points=[];fillColor=none;strokeColor=none;rounded=0;" parent="qzB6tSZT5ePcG6Z2w_7R-4" vertex="1">
          <mxGeometry x="718" y="150.16" width="80" height="20" as="geometry" />
        </mxCell>
        <mxCell id="8UPiZ9vFNv64V0zAvvHJ-5" value="" style="endArrow=classic;html=1;rounded=0;" edge="1" parent="qzB6tSZT5ePcG6Z2w_7R-4" source="KunmOENqvzwIEbT-jIGr-2" target="KunmOENqvzwIEbT-jIGr-17">
          <mxGeometry width="50" height="50" relative="1" as="geometry">
            <mxPoint x="340" y="210" as="sourcePoint" />
            <mxPoint x="395.5" y="274" as="targetPoint" />
          </mxGeometry>
        </mxCell>
        <mxCell id="KunmOENqvzwIEbT-jIGr-46" value="Streaming analytics" style="fillColor=none;strokeColor=#5A6C86;dashed=1;verticalAlign=top;fontStyle=0;fontColor=#5A6C86;glass=0;" parent="qzB6tSZT5ePcG6Z2w_7R-4" vertex="1">
          <mxGeometry x="10" y="230" width="370" height="135.5" as="geometry" />
        </mxCell>
        <mxCell id="iw8xefliiGtKPW58excf-36" style="edgeStyle=orthogonalEdgeStyle;rounded=0;orthogonalLoop=1;jettySize=auto;html=1;entryX=0;entryY=0.75;entryDx=0;entryDy=0;entryPerimeter=0;startArrow=classic;startFill=1;" parent="1" source="iw8xefliiGtKPW58excf-2" target="iw8xefliiGtKPW58excf-3" edge="1">
          <mxGeometry relative="1" as="geometry">
            <Array as="points">
              <mxPoint x="40" y="274" />
              <mxPoint x="40" y="206" />
            </Array>
          </mxGeometry>
        </mxCell>
        <mxCell id="iw8xefliiGtKPW58excf-37" style="edgeStyle=orthogonalEdgeStyle;rounded=0;orthogonalLoop=1;jettySize=auto;html=1;entryX=0;entryY=0.5;entryDx=0;entryDy=0;entryPerimeter=0;startArrow=classic;startFill=1;" parent="1" source="iw8xefliiGtKPW58excf-2" target="iw8xefliiGtKPW58excf-13" edge="1">
          <mxGeometry relative="1" as="geometry">
            <Array as="points">
              <mxPoint x="40" y="274" />
              <mxPoint x="40" y="344" />
            </Array>
          </mxGeometry>
        </mxCell>
        <mxCell id="iw8xefliiGtKPW58excf-2" value="" style="sketch=0;outlineConnect=0;fontColor=#232F3E;gradientColor=none;fillColor=#232F3D;strokeColor=none;dashed=0;verticalLabelPosition=bottom;verticalAlign=top;align=center;html=1;fontSize=12;fontStyle=0;aspect=fixed;pointerEvents=1;shape=mxgraph.aws4.client;" parent="1" vertex="1">
          <mxGeometry x="-20" y="260" width="28" height="27.28" as="geometry" />
        </mxCell>
      </root>
    </mxGraphModel>
  </diagram>
</mxfile>
